<svg width="32" height="32" viewBox="0 0 32 32" xmlns="http://www.w3.org/2000/svg">
  <defs>
    <linearGradient id="grad1" x1="0%" y1="0%" x2="100%" y2="100%">
      <stop offset="0%" style="stop-color:#155DFC;stop-opacity:1" />
      <stop offset="100%" style="stop-color:#0A47D4;stop-opacity:1" />
    </linearGradient>
  </defs>
  
  <!-- Background circle -->
  <circle cx="16" cy="16" r="15" fill="url(#grad1)" stroke="#E5E7EB" stroke-width="1"/>
  
  <!-- Open Book -->
  <!-- Left page -->
  <path d="M 8 11 Q 8 10 9 10 L 15 10 Q 16 10 16 11 L 16 22 Q 16 23 15 23 L 9 23 Q 8 23 8 22 Z" fill="white" opacity="0.95"/>
  <!-- Right page -->
  <path d="M 16 11 Q 16 10 17 10 L 23 10 Q 24 10 24 11 L 24 22 Q 24 23 23 23 L 17 23 Q 16 23 16 22 Z" fill="white" opacity="0.95"/>
  
  <!-- Book spine/binding -->
  <rect x="15.5" y="10" width="1" height="13" fill="#155DFC" opacity="0.3"/>
  
  <!-- Text lines on left page -->
  <line x1="10" y1="13" x2="14" y2="13" stroke="#155DFC" stroke-width="0.8" opacity="0.6"/>
  <line x1="10" y1="15" x2="14.5" y2="15" stroke="#155DFC" stroke-width="0.8" opacity="0.6"/>
  <line x1="10" y1="17" x2="13.5" y2="17" stroke="#155DFC" stroke-width="0.8" opacity="0.6"/>
  <line x1="10" y1="19" x2="14" y2="19" stroke="#155DFC" stroke-width="0.8" opacity="0.6"/>
  
  <!-- Text lines on right page -->
  <line x1="17.5" y1="13" x2="22" y2="13" stroke="#155DFC" stroke-width="0.8" opacity="0.6"/>
  <line x1="17.5" y1="15" x2="21.5" y2="15" stroke="#155DFC" stroke-width="0.8" opacity="0.6"/>
  <line x1="17.5" y1="17" x2="22" y2="17" stroke="#155DFC" stroke-width="0.8" opacity="0.6"/>
  <line x1="17.5" y1="19" x2="21" y2="19" stroke="#155DFC" stroke-width="0.8" opacity="0.6"/>
  
  <!-- Play button (video course indicator) -->
  <circle cx="20" cy="25" r="3.5" fill="#155DFC" stroke="white" stroke-width="1"/>
  <polygon points="18.8,23.5 18.8,26.5 21.5,25" fill="white"/>
</svg>